<?xml version="1.0" encoding="utf-8"?>
<!-- Generator: Adobe Illustrator 23.1.0, SVG Export Plug-In . SVG Version: 6.00 Build 0)  -->
<svg version="1.1" id="Layer_1" xmlns="http://www.w3.org/2000/svg" xmlns:xlink="http://www.w3.org/1999/xlink" x="0px" y="0px"
	 width="103px" height="59px" viewBox="0 0 103 59" style="enable-background:new 0 0 103 59;" xml:space="preserve">
<title>Logo</title>
<g id="Home-1">
	<g id="Fiore-Home-1" transform="translate(-520.000000, -2630.000000)">
		<g id="Group-21" transform="translate(0.000000, 2029.000000)">
			<g id="Logo" transform="translate(520.000000, 601.000000)">
				<path id="Fiore" d="M8.1,46V28h14.6v-0.5H8.1v-16h15.7V11H3.9v35H8.1z M29.1,16c0.6,0,1.1-0.2,1.5-0.6c0.4-0.4,0.6-0.9,0.6-1.5
					c0-0.6-0.2-1.1-0.6-1.5c-0.4-0.4-0.9-0.6-1.5-0.6S28,12,27.6,12.4S27,13.3,27,13.9c0,0.6,0.2,1.1,0.6,1.5
					C28,15.8,28.5,16,29.1,16z M34.7,46v-0.4h-1.5l-0.6-0.1c-0.4,0-0.7-0.3-1.1-0.8s-0.6-1.3-0.6-2.2l0,0V21h-3.5v21.5l0,0.8
					c0,0.6,0.4,1.2,1.1,1.8c0.7,0.6,1.8,0.9,3.1,0.9l0,0H34.7z M48,46.2c3.5,0,6.4-1.2,8.7-3.5c2.3-2.3,3.4-5.5,3.4-9.7
					s-1.1-7.3-3.3-9.3c-2.2-2-5.1-3-8.6-3s-6.4,1.2-8.7,3.5s-3.4,5.5-3.4,9.7s1.1,7.3,3.3,9.3S44.5,46.2,48,46.2z M48,45.8
					c-2.5,0-4.6-1-6.1-2.9C40.4,41,39.6,38,39.6,34s0.8-7.1,2.5-9.4c1.7-2.3,3.8-3.4,6.3-3.4c2.5,0,4.6,1,6.1,2.9s2.3,4.9,2.3,8.9
					s-0.8,7.1-2.5,9.4C52.6,44.7,50.5,45.8,48,45.8z M66.7,46V30.9c0.1-1.6,0.7-3.3,2-5.1c1.2-1.8,2.6-3,4.1-3.6l0,0v1
					c0,0.7,0.2,1.2,0.7,1.6c0.4,0.4,1,0.7,1.7,0.7c0.7,0,1.2-0.2,1.7-0.7c0.5-0.4,0.7-1,0.7-1.6c0-0.7-0.2-1.2-0.7-1.7
					c-0.4-0.5-1-0.7-1.7-0.7l0,0h-0.2c-1.9,0.1-3.6,1-5.1,2.7S67.2,27,66.7,29l0,0v-8h-3.5v25H66.7z M91,46.2c3.3,0,6.4-0.5,9-1.5
					l0,0l-0.2-0.4c-2.6,1-5.6,1.5-8.9,1.5c-2.4,0-4.3-1-5.7-2.9c-1.4-1.9-2.2-5-2.2-9.1c0-1,0-1.9,0.1-2.8l0,0h17.9l0,0v-0.5
					c0-3.2-0.9-5.6-2.8-7.3s-4.2-2.5-6.9-2.5c-3.4,0-6.2,1.2-8.4,3.5c-2.2,2.3-3.3,5.5-3.3,9.7s1,7.3,3.2,9.3
					C84.9,45.2,87.6,46.2,91,46.2z M97.7,30.6H83.3c0.4-2.9,1.3-5.2,2.8-6.9c1.5-1.7,3.2-2.5,5.1-2.5s3.4,0.8,4.7,2.3
					C97,25,97.6,27.4,97.7,30.6L97.7,30.6z"/>
				<path id="Line-3" d="M54.1,12.1c0.2-0.2,0.5-0.2,0.7,0c0.2,0.2,0.2,0.4,0.1,0.6l-0.1,0.1l-5,5c-0.2,0.2-0.5,0.2-0.7,0
					c-0.2-0.2-0.2-0.4-0.1-0.6l0.1-0.1L54.1,12.1z"/>
			</g>
		</g>
	</g>
</g>
</svg>
