<svg xmlns="http://www.w3.org/2000/svg" xmlns:xlink="http://www.w3.org/1999/xlink" width="195px" height="71px" viewBox="0 0 195 71"><title>09971BF9-0F3C-40BD-8362-AC0D459EB3F2</title><g id="Home-1" stroke="none" stroke-width="1" fill="none" fill-rule="evenodd"><g id="Fiore-Home-1" transform="translate(-100.000000, -9599.000000)" fill="#6A6E49" fill-rule="nonzero"><g id="Group-3-Copy" transform="translate(0.000000, 8866.000000)"><g id="Group-2" transform="translate(0.000000, 540.000000)"><g id="Group-38" transform="translate(0.000000, 100.000000)"><g id="Logo" transform="translate(100.300000, 93.000000)"><path d="M8.3,70 L8.3,34 L37.5,34 L37.5,33 L8.3,33 L8.3,1 L39.8,1 L39.8,0 L0,0 L0,70 L8.3,70 Z M50.5,10 C51.7,10 52.7166667,9.6 53.55,8.8 C54.3833333,8 54.8,7 54.8,5.8 C54.8,4.6 54.3833333,3.58333333 53.55,2.75 C52.7166667,1.91666667 51.7,1.5 50.5,1.5 C49.3,1.5 48.3,1.91666667 47.5,2.75 C46.7,3.58333333 46.3,4.6 46.3,5.8 C46.3,7 46.7,8 47.5,8.8 C48.3,9.6 49.3,10 50.5,10 Z M61.6,70 L61.6,69.2 L58.5,69.2 L57.3,69 C56.5666667,68.9333333 55.8166667,68.3833333 55.05,67.35 C54.2833333,66.3166667 53.9,64.8333333 53.9,62.9 L53.9,62.9 L53.9,20 L46.9,20 L46.9,62.9 L47,64.6 C47.0666667,65.8 47.8166667,67 49.25,68.2 C50.6833333,69.4 52.7666667,70 55.5,70 L55.5,70 L61.6,70 Z M88.3,70.4 C95.3666667,70.4 101.183333,68.1 105.75,63.5 C110.316667,58.9 112.6,52.4333333 112.6,44.1 C112.6,35.7666667 110.4,29.6 106,25.6 C101.6,21.6 95.8833333,19.6 88.85,19.6 C81.8166667,19.6 76.0166667,21.9 71.45,26.5 C66.8833333,31.1 64.6,37.5666667 64.6,45.9 C64.6,54.2333333 66.8,60.4 71.2,64.4 C75.6,68.4 81.3,70.4 88.3,70.4 Z M88.2,69.6 C83.1333333,69.6 79.0666667,67.6666667 76,63.8 C72.9333333,59.9333333 71.4,53.9833333 71.4,45.95 C71.4,37.9166667 73.0666667,31.65 76.4,27.15 C79.7333333,22.65 83.9333333,20.4 89,20.4 C94.0666667,20.4 98.1333333,22.3333333 101.2,26.2 C104.266667,30.0666667 105.8,36.0166667 105.8,44.05 C105.8,52.0833333 104.133333,58.35 100.8,62.85 C97.4666667,67.35 93.2666667,69.6 88.2,69.6 Z M125.6,70 L125.6,39.7 C125.733333,36.5 127.033333,33.0833333 129.5,29.45 C131.966667,25.8166667 134.7,23.4 137.7,22.2 L137.7,22.2 L137.7,24.3 C137.7,25.6333333 138.133333,26.7333333 139,27.6 C139.866667,28.4666667 140.966667,28.9 142.3,28.9 C143.633333,28.9 144.75,28.4666667 145.65,27.6 C146.55,26.7333333 147,25.6333333 147,24.3 C147,22.9666667 146.55,21.85 145.65,20.95 C144.75,20.05 143.633333,19.6 142.3,19.6 L142.3,19.6 L141.9,19.6 C138.1,19.7333333 134.7,21.5166667 131.7,24.95 C128.7,28.3833333 126.666667,32.0333333 125.6,35.9 L125.6,35.9 L125.6,20 L118.6,20 L118.6,70 L125.6,70 Z M174.15,70.4 C180.85,70.4 186.866667,69.3666667 192.2,67.3 L192.2,67.3 L191.9,66.6 C186.7,68.6 180.766667,69.6 174.1,69.6 C169.366667,69.6 165.55,67.6666667 162.65,63.8 C159.75,59.9333333 158.3,53.8666667 158.3,45.6 C158.3,43.6666667 158.4,41.8 158.6,40 L158.6,40 L194.3,40 L194.3,40 L194.3,39 C194.3,32.6 192.433333,27.7666667 188.7,24.5 C184.966667,21.2333333 180.366667,19.6 174.9,19.6 C168.1,19.6 162.5,21.9 158.1,26.5 C153.7,31.1 151.5,37.5666667 151.5,45.9 C151.5,54.2333333 153.6,60.4 157.8,64.4 C162,68.4 167.45,70.4 174.15,70.4 Z M187.5,39.2 L158.7,39.2 C159.5,33.3333333 161.383333,28.7333333 164.35,25.4 C167.316667,22.0666667 170.7,20.4 174.5,20.4 C178.3,20.4 181.4,21.9333333 183.8,25 C186.2,28.0666667 187.433333,32.8 187.5,39.2 L187.5,39.2 Z" id="Fiore"></path><path d="M99.9928932,1.29289322 C100.383418,0.902368927 101.016582,0.902368927 101.407107,1.29289322 C101.767591,1.65337718 101.79532,2.22060824 101.490295,2.61289944 L101.407107,2.70710678 L91.4071068,12.7071068 C91.0165825,13.0976311 90.3834175,13.0976311 89.9928932,12.7071068 C89.6324093,12.3466228 89.6046797,11.7793918 89.9097046,11.3871006 L89.9928932,11.2928932 L99.9928932,1.29289322 Z" id="Line-3"></path></g></g></g></g></g></g></svg>